<?xml version="1.0"?><svg width="640" height="480" xmlns="http://www.w3.org/2000/svg" xmlns:xlink="http://www.w3.org/1999/xlink">
 <title>CTRL+C</title>
 <defs>
  <linearGradient id="linearGradient607">
   <stop id="stop608" offset="0" stop-color="#cfcfcf"/>
   <stop id="stop609" offset="1" stop-color="#efefef"/>
  </linearGradient>
  <linearGradient id="linearGradient565">
   <stop id="stop566" offset="0" stop-color="#9d9d9f"/>
   <stop id="stop567" offset="1" stop-color="#e5e5e5"/>
  </linearGradient>
  <linearGradient gradientUnits="objectBoundingBox" id="linearGradient613" spreadMethod="pad" x1="0.235293" x2="0.828054" xlink:href="#linearGradient607" y1="0.851563" y2="0.125"/>
  <linearGradient gradientUnits="objectBoundingBox" id="linearGradient615" spreadMethod="pad" x1="0.107317" x2="0.878049" xlink:href="#linearGradient565" y1="0.820312" y2="0.078125"/>
  <linearGradient id="linearGradient620" xlink:href="#linearGradient607"/>
 </defs>
 <g>
  <title>Layer 1</title>
  <path d="m75.666,32.391899l-3.192001,0l0,3.192001l-2.664001,0l0,-3.192001l-3.192001,0l0,-2.688l3.192001,0l0,-3.191999l2.664001,0l0,3.191999l3.192001,0l0,2.688z" id="path612" transform="scale(4.41501)" stroke-width="0.28313" fill="#000000"/>
  <rect height="139.464951" id="rect614" ry="14.593018" width="222.766571" x="53.369064" y="67.516663" stroke="#acb0b0" stroke-width="1pt" fill-rule="evenodd" fill="url(#linearGradient615)"/>
  <rect height="107.053909" id="rect612" ry="8.121338" width="185.31398" x="73.033081" y="82.324982" stroke="url(#linearGradient620)" stroke-width="2.5" fill-rule="evenodd" fill="url(#linearGradient613)"/>
  <rect height="139.464951" id="rect621" ry="20.669067" width="148.544113" x="350.359543" y="67.516449" stroke-width="0.81659pt" stroke="#acb0b0" fill-rule="evenodd" fill="url(#linearGradient615)"/>
  <rect height="107.053909" id="rect622" rx="7.516937" ry="10.325302" width="107.665894" x="370.02359" y="82.324737" stroke-width="2.5" stroke="url(#linearGradient620)" fill-rule="evenodd" fill="url(#linearGradient613)"/>
  <text xml:space="preserve" text-anchor="middle" font-family="Arial" font-size="49" id="svg_2" y="152" x="161" stroke-width="0" stroke="#000000" fill="#000000">CTRL</text>
  <text id="svg_3" xml:space="preserve" text-anchor="middle" font-family="Arial" font-size="49" y="150.5" x="423.5" stroke-width="0" stroke="#000000" fill="#000000">C</text>
 </g>
</svg>